<svg width="900" height="500" viewBox="0 0 900 500" fill="none" xmlns="http://www.w3.org/2000/svg">
<rect x="202" y="2" width="98" height="98" fill="#E3F2FD"/>
<rect x="2" y="2" width="98" height="98" fill="#E3F2FD"/>
<rect x="102" y="102" width="98" height="98" fill="#FFEBEE"/>
<rect x="2" y="202" width="98" height="98" fill="#E3F2FD"/>
<rect x="202" y="202" width="98" height="98" fill="#E3F2FD"/>
<rect x="602" y="202" width="98" height="98" fill="#E3F2FD"/>
<rect x="604" width="98" height="98" fill="#E3F2FD"/>
<rect x="302" y="302" width="98" height="98" fill="#BBDEFB"/>
<rect x="402" y="402" width="98" height="98" fill="#FFEBEE"/>
<rect x="702" y="302" width="98" height="98" fill="#BBDEFB"/>
<rect x="502" y="102" width="98" height="98" fill="#E3F2FD"/>
<rect x="802" y="102" width="98" height="98" fill="#FFCDD2"/>
<g filter="url(#filter0_d)">
<rect x="104" y="104" width="94" height="94" fill="#FFFDE7"/>
<path d="M164.641 166.422C164.641 163.422 163.578 161.109 161.453 159.484C159.359 157.859 155.562 156.219 150.062 154.562C144.562 152.906 140.188 151.062 136.938 149.031C130.719 145.125 127.609 140.031 127.609 133.75C127.609 128.25 129.844 123.719 134.312 120.156C138.812 116.594 144.641 114.812 151.797 114.812C156.547 114.812 160.781 115.688 164.5 117.438C168.219 119.188 171.141 121.688 173.266 124.938C175.391 128.156 176.453 131.734 176.453 135.672H164.641C164.641 132.109 163.516 129.328 161.266 127.328C159.047 125.297 155.859 124.281 151.703 124.281C147.828 124.281 144.812 125.109 142.656 126.766C140.531 128.422 139.469 130.734 139.469 133.703C139.469 136.203 140.625 138.297 142.938 139.984C145.25 141.641 149.062 143.266 154.375 144.859C159.688 146.422 163.953 148.219 167.172 150.25C170.391 152.25 172.75 154.562 174.25 157.188C175.75 159.781 176.5 162.828 176.5 166.328C176.5 172.016 174.312 176.547 169.938 179.922C165.594 183.266 159.688 184.938 152.219 184.938C147.281 184.938 142.734 184.031 138.578 182.219C134.453 180.375 131.234 177.844 128.922 174.625C126.641 171.406 125.5 167.656 125.5 163.375H137.359C137.359 167.25 138.641 170.25 141.203 172.375C143.766 174.5 147.438 175.562 152.219 175.562C156.344 175.562 159.438 174.734 161.5 173.078C163.594 171.391 164.641 169.172 164.641 166.422Z" fill="black"/>
<path d="M193.584 193H192.166V186.15L190.074 186.865V185.664L193.402 184.439H193.584V193Z" fill="black"/>
</g>
<g filter="url(#filter1_d)">
<rect x="204" y="104" width="94" height="94" fill="#FFFDE7"/>
<path d="M278.656 161.781C277.969 169.062 275.281 174.75 270.594 178.844C265.906 182.906 259.672 184.938 251.891 184.938C246.453 184.938 241.656 183.656 237.5 181.094C233.375 178.5 230.188 174.828 227.938 170.078C225.688 165.328 224.516 159.812 224.422 153.531V147.156C224.422 140.719 225.562 135.047 227.844 130.141C230.125 125.234 233.391 121.453 237.641 118.797C241.922 116.141 246.859 114.812 252.453 114.812C259.984 114.812 266.047 116.859 270.641 120.953C275.234 125.047 277.906 130.828 278.656 138.297H266.844C266.281 133.391 264.844 129.859 262.531 127.703C260.25 125.516 256.891 124.422 252.453 124.422C247.297 124.422 243.328 126.312 240.547 130.094C237.797 133.844 236.391 139.359 236.328 146.641V152.688C236.328 160.062 237.641 165.688 240.266 169.562C242.922 173.438 246.797 175.375 251.891 175.375C256.547 175.375 260.047 174.328 262.391 172.234C264.734 170.141 266.219 166.656 266.844 161.781H278.656Z" fill="black"/>
<path d="M291.375 188.084H292.242C292.68 188.08 293.025 187.967 293.279 187.744C293.537 187.521 293.666 187.199 293.666 186.777C293.666 186.371 293.559 186.057 293.344 185.834C293.133 185.607 292.809 185.494 292.371 185.494C291.988 185.494 291.674 185.605 291.428 185.828C291.182 186.047 291.059 186.334 291.059 186.689H289.635C289.635 186.252 289.75 185.854 289.98 185.494C290.215 185.135 290.539 184.855 290.953 184.656C291.371 184.453 291.838 184.352 292.354 184.352C293.205 184.352 293.873 184.566 294.357 184.996C294.846 185.422 295.09 186.016 295.09 186.777C295.09 187.16 294.967 187.521 294.721 187.861C294.479 188.197 294.164 188.451 293.777 188.623C294.246 188.783 294.602 189.035 294.844 189.379C295.09 189.723 295.213 190.133 295.213 190.609C295.213 191.375 294.949 191.984 294.422 192.438C293.898 192.891 293.209 193.117 292.354 193.117C291.533 193.117 290.861 192.898 290.338 192.461C289.814 192.023 289.553 191.441 289.553 190.715H290.977C290.977 191.09 291.102 191.395 291.352 191.629C291.605 191.863 291.945 191.98 292.371 191.98C292.812 191.98 293.16 191.863 293.414 191.629C293.668 191.395 293.795 191.055 293.795 190.609C293.795 190.16 293.662 189.814 293.396 189.572C293.131 189.33 292.736 189.209 292.213 189.209H291.375V188.084Z" fill="black"/>
</g>
<g filter="url(#filter2_d)">
<rect x="304" y="104" width="94" height="94" fill="#FFFDE7"/>
<path d="M353.062 157.703H339.844V184H327.984V115.75H351.984C359.859 115.75 365.938 117.516 370.219 121.047C374.5 124.578 376.641 129.688 376.641 136.375C376.641 140.938 375.531 144.766 373.312 147.859C371.125 150.922 368.062 153.281 364.125 154.938L379.453 183.391V184H366.75L353.062 157.703ZM339.844 148.188H352.031C356.031 148.188 359.156 147.188 361.406 145.188C363.656 143.156 364.781 140.391 364.781 136.891C364.781 133.234 363.734 130.406 361.641 128.406C359.578 126.406 356.484 125.375 352.359 125.312H339.844V148.188Z" fill="black"/>
<path d="M393.584 193H392.166V186.15L390.074 186.865V185.664L393.402 184.439H393.584V193Z" fill="black"/>
</g>
<g filter="url(#filter3_d)">
<rect x="404" y="104" width="94" height="94" fill="#FFFDE7"/>
<path d="M464.172 168.109H437.734L432.203 184H419.875L445.656 115.75H456.297L482.125 184H469.75L464.172 168.109ZM441.062 158.547H460.844L450.953 130.234L441.062 158.547Z" fill="black"/>
<path d="M493.584 193H492.166V186.15L490.074 186.865V185.664L493.402 184.439H493.584V193Z" fill="black"/>
</g>
<g filter="url(#filter4_d)">
<rect x="504" y="104" width="94" height="94" fill="#FFFDE7"/>
<path d="M527.656 184V115.75H551.047C558.766 115.75 564.641 117.297 568.672 120.391C572.703 123.484 574.719 128.094 574.719 134.219C574.719 137.344 573.875 140.156 572.188 142.656C570.5 145.156 568.031 147.094 564.781 148.469C568.469 149.469 571.312 151.359 573.312 154.141C575.344 156.891 576.359 160.203 576.359 164.078C576.359 170.484 574.297 175.406 570.172 178.844C566.078 182.281 560.203 184 552.547 184H527.656ZM539.516 153.203V174.531H552.688C556.406 174.531 559.312 173.609 561.406 171.766C563.5 169.922 564.547 167.359 564.547 164.078C564.547 156.984 560.922 153.359 553.672 153.203H539.516ZM539.516 144.484H551.141C554.828 144.484 557.703 143.656 559.766 142C561.859 140.312 562.906 137.938 562.906 134.875C562.906 131.5 561.938 129.062 560 127.562C558.094 126.062 555.109 125.312 551.047 125.312H539.516V144.484Z" fill="black"/>
<path d="M591.375 188.084H592.242C592.68 188.08 593.025 187.967 593.279 187.744C593.537 187.521 593.666 187.199 593.666 186.777C593.666 186.371 593.559 186.057 593.344 185.834C593.133 185.607 592.809 185.494 592.371 185.494C591.988 185.494 591.674 185.605 591.428 185.828C591.182 186.047 591.059 186.334 591.059 186.689H589.635C589.635 186.252 589.75 185.854 589.98 185.494C590.215 185.135 590.539 184.855 590.953 184.656C591.371 184.453 591.838 184.352 592.354 184.352C593.205 184.352 593.873 184.566 594.357 184.996C594.846 185.422 595.09 186.016 595.09 186.777C595.09 187.16 594.967 187.521 594.721 187.861C594.479 188.197 594.164 188.451 593.777 188.623C594.246 188.783 594.602 189.035 594.844 189.379C595.09 189.723 595.213 190.133 595.213 190.609C595.213 191.375 594.949 191.984 594.422 192.438C593.898 192.891 593.209 193.117 592.354 193.117C591.533 193.117 590.861 192.898 590.338 192.461C589.814 192.023 589.553 191.441 589.553 190.715H590.977C590.977 191.09 591.102 191.395 591.352 191.629C591.605 191.863 591.945 191.98 592.371 191.98C592.812 191.98 593.16 191.863 593.414 191.629C593.668 191.395 593.795 191.055 593.795 190.609C593.795 190.16 593.662 189.814 593.396 189.572C593.131 189.33 592.736 189.209 592.213 189.209H591.375V188.084Z" fill="black"/>
</g>
<g filter="url(#filter5_d)">
<rect x="604" y="104" width="94" height="94" fill="#FFFDE7"/>
<path d="M627.656 184V115.75H651.047C658.766 115.75 664.641 117.297 668.672 120.391C672.703 123.484 674.719 128.094 674.719 134.219C674.719 137.344 673.875 140.156 672.188 142.656C670.5 145.156 668.031 147.094 664.781 148.469C668.469 149.469 671.312 151.359 673.312 154.141C675.344 156.891 676.359 160.203 676.359 164.078C676.359 170.484 674.297 175.406 670.172 178.844C666.078 182.281 660.203 184 652.547 184H627.656ZM639.516 153.203V174.531H652.688C656.406 174.531 659.312 173.609 661.406 171.766C663.5 169.922 664.547 167.359 664.547 164.078C664.547 156.984 660.922 153.359 653.672 153.203H639.516ZM639.516 144.484H651.141C654.828 144.484 657.703 143.656 659.766 142C661.859 140.312 662.906 137.938 662.906 134.875C662.906 131.5 661.938 129.062 660 127.562C658.094 126.062 655.109 125.312 651.047 125.312H639.516V144.484Z" fill="black"/>
<path d="M691.375 188.084H692.242C692.68 188.08 693.025 187.967 693.279 187.744C693.537 187.521 693.666 187.199 693.666 186.777C693.666 186.371 693.559 186.057 693.344 185.834C693.133 185.607 692.809 185.494 692.371 185.494C691.988 185.494 691.674 185.605 691.428 185.828C691.182 186.047 691.059 186.334 691.059 186.689H689.635C689.635 186.252 689.75 185.854 689.98 185.494C690.215 185.135 690.539 184.855 690.953 184.656C691.371 184.453 691.838 184.352 692.354 184.352C693.205 184.352 693.873 184.566 694.357 184.996C694.846 185.422 695.09 186.016 695.09 186.777C695.09 187.16 694.967 187.521 694.721 187.861C694.479 188.197 694.164 188.451 693.777 188.623C694.246 188.783 694.602 189.035 694.844 189.379C695.09 189.723 695.213 190.133 695.213 190.609C695.213 191.375 694.949 191.984 694.422 192.438C693.898 192.891 693.209 193.117 692.354 193.117C691.533 193.117 690.861 192.898 690.338 192.461C689.814 192.023 689.553 191.441 689.553 190.715H690.977C690.977 191.09 691.102 191.395 691.352 191.629C691.605 191.863 691.945 191.98 692.371 191.98C692.812 191.98 693.16 191.863 693.414 191.629C693.668 191.395 693.795 191.055 693.795 190.609C693.795 190.16 693.662 189.814 693.396 189.572C693.131 189.33 692.736 189.209 692.213 189.209H691.375V188.084Z" fill="black"/>
</g>
<g filter="url(#filter6_d)">
<rect x="704" y="104" width="94" height="94" fill="#FFFDE7"/>
<path d="M743.828 174.531H774.812V184H731.969V115.75H743.828V174.531Z" fill="black"/>
<path d="M793.584 193H792.166V186.15L790.074 186.865V185.664L793.402 184.439H793.584V193Z" fill="black"/>
</g>
<g filter="url(#filter7_d)">
<rect x="804" y="104" width="94" height="94" fill="#FFFDE7"/>
<path d="M870.688 153.531H842.656V174.531H875.422V184H830.797V115.75H875.094V125.312H842.656V144.156H870.688V153.531Z" fill="black"/>
<path d="M893.584 193H892.166V186.15L890.074 186.865V185.664L893.402 184.439H893.584V193Z" fill="black"/>
</g>
<defs>
<filter id="filter0_d" x="102" y="104" width="98" height="98" filterUnits="userSpaceOnUse" color-interpolation-filters="sRGB">
<feFlood flood-opacity="0" result="BackgroundImageFix"/>
<feColorMatrix in="SourceAlpha" type="matrix" values="0 0 0 0 0 0 0 0 0 0 0 0 0 0 0 0 0 0 127 0"/>
<feOffset dy="2"/>
<feGaussianBlur stdDeviation="1"/>
<feColorMatrix type="matrix" values="0 0 0 0 0 0 0 0 0 0 0 0 0 0 0 0 0 0 0.25 0"/>
<feBlend mode="normal" in2="BackgroundImageFix" result="effect1_dropShadow"/>
<feBlend mode="normal" in="SourceGraphic" in2="effect1_dropShadow" result="shape"/>
</filter>
<filter id="filter1_d" x="202" y="104" width="98" height="98" filterUnits="userSpaceOnUse" color-interpolation-filters="sRGB">
<feFlood flood-opacity="0" result="BackgroundImageFix"/>
<feColorMatrix in="SourceAlpha" type="matrix" values="0 0 0 0 0 0 0 0 0 0 0 0 0 0 0 0 0 0 127 0"/>
<feOffset dy="2"/>
<feGaussianBlur stdDeviation="1"/>
<feColorMatrix type="matrix" values="0 0 0 0 0 0 0 0 0 0 0 0 0 0 0 0 0 0 0.25 0"/>
<feBlend mode="normal" in2="BackgroundImageFix" result="effect1_dropShadow"/>
<feBlend mode="normal" in="SourceGraphic" in2="effect1_dropShadow" result="shape"/>
</filter>
<filter id="filter2_d" x="302" y="104" width="98" height="98" filterUnits="userSpaceOnUse" color-interpolation-filters="sRGB">
<feFlood flood-opacity="0" result="BackgroundImageFix"/>
<feColorMatrix in="SourceAlpha" type="matrix" values="0 0 0 0 0 0 0 0 0 0 0 0 0 0 0 0 0 0 127 0"/>
<feOffset dy="2"/>
<feGaussianBlur stdDeviation="1"/>
<feColorMatrix type="matrix" values="0 0 0 0 0 0 0 0 0 0 0 0 0 0 0 0 0 0 0.25 0"/>
<feBlend mode="normal" in2="BackgroundImageFix" result="effect1_dropShadow"/>
<feBlend mode="normal" in="SourceGraphic" in2="effect1_dropShadow" result="shape"/>
</filter>
<filter id="filter3_d" x="402" y="104" width="98" height="98" filterUnits="userSpaceOnUse" color-interpolation-filters="sRGB">
<feFlood flood-opacity="0" result="BackgroundImageFix"/>
<feColorMatrix in="SourceAlpha" type="matrix" values="0 0 0 0 0 0 0 0 0 0 0 0 0 0 0 0 0 0 127 0"/>
<feOffset dy="2"/>
<feGaussianBlur stdDeviation="1"/>
<feColorMatrix type="matrix" values="0 0 0 0 0 0 0 0 0 0 0 0 0 0 0 0 0 0 0.25 0"/>
<feBlend mode="normal" in2="BackgroundImageFix" result="effect1_dropShadow"/>
<feBlend mode="normal" in="SourceGraphic" in2="effect1_dropShadow" result="shape"/>
</filter>
<filter id="filter4_d" x="502" y="104" width="98" height="98" filterUnits="userSpaceOnUse" color-interpolation-filters="sRGB">
<feFlood flood-opacity="0" result="BackgroundImageFix"/>
<feColorMatrix in="SourceAlpha" type="matrix" values="0 0 0 0 0 0 0 0 0 0 0 0 0 0 0 0 0 0 127 0"/>
<feOffset dy="2"/>
<feGaussianBlur stdDeviation="1"/>
<feColorMatrix type="matrix" values="0 0 0 0 0 0 0 0 0 0 0 0 0 0 0 0 0 0 0.25 0"/>
<feBlend mode="normal" in2="BackgroundImageFix" result="effect1_dropShadow"/>
<feBlend mode="normal" in="SourceGraphic" in2="effect1_dropShadow" result="shape"/>
</filter>
<filter id="filter5_d" x="602" y="104" width="98" height="98" filterUnits="userSpaceOnUse" color-interpolation-filters="sRGB">
<feFlood flood-opacity="0" result="BackgroundImageFix"/>
<feColorMatrix in="SourceAlpha" type="matrix" values="0 0 0 0 0 0 0 0 0 0 0 0 0 0 0 0 0 0 127 0"/>
<feOffset dy="2"/>
<feGaussianBlur stdDeviation="1"/>
<feColorMatrix type="matrix" values="0 0 0 0 0 0 0 0 0 0 0 0 0 0 0 0 0 0 0.25 0"/>
<feBlend mode="normal" in2="BackgroundImageFix" result="effect1_dropShadow"/>
<feBlend mode="normal" in="SourceGraphic" in2="effect1_dropShadow" result="shape"/>
</filter>
<filter id="filter6_d" x="702" y="104" width="98" height="98" filterUnits="userSpaceOnUse" color-interpolation-filters="sRGB">
<feFlood flood-opacity="0" result="BackgroundImageFix"/>
<feColorMatrix in="SourceAlpha" type="matrix" values="0 0 0 0 0 0 0 0 0 0 0 0 0 0 0 0 0 0 127 0"/>
<feOffset dy="2"/>
<feGaussianBlur stdDeviation="1"/>
<feColorMatrix type="matrix" values="0 0 0 0 0 0 0 0 0 0 0 0 0 0 0 0 0 0 0.25 0"/>
<feBlend mode="normal" in2="BackgroundImageFix" result="effect1_dropShadow"/>
<feBlend mode="normal" in="SourceGraphic" in2="effect1_dropShadow" result="shape"/>
</filter>
<filter id="filter7_d" x="802" y="104" width="98" height="98" filterUnits="userSpaceOnUse" color-interpolation-filters="sRGB">
<feFlood flood-opacity="0" result="BackgroundImageFix"/>
<feColorMatrix in="SourceAlpha" type="matrix" values="0 0 0 0 0 0 0 0 0 0 0 0 0 0 0 0 0 0 127 0"/>
<feOffset dy="2"/>
<feGaussianBlur stdDeviation="1"/>
<feColorMatrix type="matrix" values="0 0 0 0 0 0 0 0 0 0 0 0 0 0 0 0 0 0 0.25 0"/>
<feBlend mode="normal" in2="BackgroundImageFix" result="effect1_dropShadow"/>
<feBlend mode="normal" in="SourceGraphic" in2="effect1_dropShadow" result="shape"/>
</filter>
</defs>
</svg>
